<svg width="88" height="50" viewBox="0 0 88 50" fill="none" xmlns="http://www.w3.org/2000/svg">
<path d="M22.4683 11.5988C21.6664 12.5425 20.9059 13.5158 20.1851 14.5196C19.5447 14.5147 18.9371 14.2491 18.5002 13.7742C18.3071 13.5656 18.1243 13.3582 17.9531 13.152C17.0658 12.0864 16.4687 11.053 16.1713 10.0747C15.5602 8.06669 16.4748 5.06283 17.2139 3.16275C17.3992 4.72806 17.8446 6.85071 18.9036 8.18131C19.4277 8.83994 20.1473 9.44702 21.0455 9.98981C21.1509 10.0535 21.2587 10.1178 21.369 10.1796C21.9205 10.4889 22.3092 10.9917 22.4683 11.5994V11.5988Z" fill="#E8E3DD"/>
<path d="M48.4074 3.04813C48.1289 2.45743 47.7018 1.9401 47.1265 1.49617C46.5501 1.05344 45.7988 0.693198 44.8714 0.41604C43.9421 0.138882 42.8288 0 41.5291 0C39.302 0 36.9706 0.453035 34.5394 1.35789C32.1081 2.26457 29.7024 3.49267 27.3272 5.04464C25.1305 6.48016 23.0356 8.12794 21.0449 9.99042C20.8828 10.1408 20.7213 10.2949 20.5598 10.4495C19.6446 11.3283 18.7751 12.2301 17.9531 13.1526C16.8556 14.3837 15.8405 15.6537 14.9069 16.9624C13.2721 19.2549 11.9736 21.6007 11.0084 24.003C10.042 26.4052 9.55997 28.7334 9.55997 30.9877C9.55997 31.9114 9.67148 32.8259 9.8945 33.7308C10.1169 34.6375 10.4789 35.4404 10.9797 36.1427C11.4806 36.845 12.1125 37.4084 12.8742 37.8323C13.6346 38.2575 14.5346 38.471 15.5754 38.471C17.3571 38.471 19.1858 37.9075 21.0607 36.7801C22.9356 35.6527 24.6345 34.2396 26.1572 32.5385C26.7032 31.9277 27.2144 31.3006 27.6885 30.6572C26.8446 30.6202 26.0902 30.4546 25.4272 30.1623C25.0531 30.8476 24.6467 31.5111 24.2073 32.1503C23.0941 33.7775 21.8309 35.1257 20.4197 36.1973C19.0084 37.2695 17.5795 37.8051 16.1317 37.8051C15.3518 37.8051 14.7296 37.6383 14.2653 37.3065C13.8004 36.9736 13.4482 36.5575 13.2069 36.0584C12.9656 35.5599 12.798 34.9971 12.706 34.3676C12.6128 33.7399 12.5665 33.1304 12.5665 32.5378C12.5665 30.5068 12.9741 28.52 13.7925 26.5799C14.6084 24.6398 15.6205 22.921 16.827 21.4248C18.0335 19.9275 19.3338 18.7176 20.7256 17.7939C22.0795 16.8951 23.3201 16.4342 24.4468 16.4093C24.4779 16.4081 24.5102 16.4081 24.5413 16.4081C25.2828 16.4081 25.8775 16.5555 26.323 16.8508C26.7678 17.1474 27.1206 17.5349 27.3814 18.0147C27.5788 18.3816 27.7232 18.7806 27.8134 19.2118C27.8415 19.3453 27.8646 19.4829 27.8823 19.623C27.9566 20.2143 27.9938 20.8062 27.9938 21.3963C27.9938 22.8385 27.7391 24.362 27.2309 25.9643C27.6678 27.9232 28.6891 28.1518 29.2923 28.1779C29.5007 27.8068 29.6993 27.432 29.8864 27.0505C30.8516 25.0922 31.3348 23.2631 31.3348 21.5631C31.3348 19.6418 30.862 18.1535 29.9144 17.1001C29.6421 16.7969 29.3289 16.5367 28.9773 16.3202C28.1096 15.7865 27.0006 15.5202 25.6539 15.5202C25.4315 15.5202 25.2097 15.5281 24.9916 15.5451C24.225 15.6021 23.4792 15.7604 22.7577 16.02C21.8297 16.3523 20.9565 16.7962 20.1406 17.35C19.3229 17.9049 18.5618 18.5332 17.8562 19.2355C17.1505 19.9378 16.5004 20.6401 15.9069 21.3412H15.7954C16.9099 19.3459 18.3107 17.1565 20.0011 14.7725C20.0614 14.6875 20.1211 14.6039 20.1826 14.5202C20.9035 13.5164 21.6639 12.5431 22.4658 11.5994C23.4901 10.3913 24.5809 9.23111 25.7374 8.12127C27.8719 6.07018 30.2027 4.35144 32.7272 2.96626C35.2517 1.58107 37.87 0.887269 40.581 0.887269C41.8429 0.887269 42.8825 1.10075 43.7002 1.52467C44.5161 1.94981 45.1754 2.46713 45.6769 3.07663C46.179 3.68614 46.5306 4.35144 46.7353 5.07253C46.9389 5.79302 47.0418 6.43043 47.0418 6.98474C47.0418 7.28131 47.0321 7.50267 47.0138 7.65004C46.9949 7.79741 46.9669 8.01938 46.9303 8.31413C47.3751 7.98178 47.8023 7.52996 48.2112 6.95624C48.6188 6.38373 48.8236 5.69053 48.8236 4.87725C48.8236 4.24955 48.684 3.63944 48.4055 3.04752L48.4074 3.04813Z" fill="#E8E3DD"/>
<path d="M41.3573 14.7749C41.5023 15.4699 41.952 16.0533 42.5882 16.3754C43.2231 16.6956 43.9573 16.7113 44.6032 16.4178C46.2028 15.6937 47.4111 14.8489 48.1947 13.91C49.5426 12.2962 49.8722 9.17532 49.9344 7.13818C49.1514 8.50881 47.912 10.2918 46.4166 11.1081C45.5892 11.56 44.5618 11.8577 43.3651 11.9954C42.71 12.07 42.136 12.4054 41.7509 12.9385C41.3676 13.4673 41.2238 14.1357 41.3573 14.7743V14.7749Z" fill="#E8E3DD"/>
<path d="M43.0147 8.96851C42.0306 7.7495 40.4798 7.13878 38.3642 7.13878C36.8408 7.13878 35.1798 7.65732 33.3792 8.69075C31.5779 9.726 29.8986 11.0469 28.3387 12.6553C27.6903 13.3236 27.0871 14.0259 26.5295 14.7609C27.304 14.8289 28.0048 14.9914 28.6251 15.2479C28.9559 14.6263 29.3155 14.0198 29.7036 13.4303C30.7608 11.8232 31.9765 10.4847 33.3517 9.41245C34.7246 8.34081 36.1541 7.80469 37.6397 7.80469C38.9394 7.80469 39.8485 8.27653 40.3689 9.21838C40.8893 10.1608 41.1489 11.3344 41.1489 12.7389C41.1489 14.9932 40.7498 17.1092 39.9521 19.0863C39.1521 21.0634 38.1692 22.7912 36.9993 24.2686C35.8293 25.7478 34.568 26.9019 33.2128 27.734C31.857 28.5648 30.6231 28.9809 29.5086 28.9809C29.4422 28.9809 29.3782 28.9791 29.3142 28.976C27.797 28.9014 26.8385 27.9305 26.4388 26.065C26.2956 25.3966 26.223 24.6137 26.223 23.7149C26.223 22.323 26.4753 20.8129 26.9847 19.1833C26.9116 18.9019 26.8074 18.6369 26.677 18.3925C26.4784 18.0286 26.2182 17.7411 25.8794 17.5155C25.6381 17.3548 25.309 17.2572 24.9002 17.222C24.7405 17.4973 24.5882 17.7775 24.4401 18.0607C23.4006 20.056 22.8808 22.0149 22.8808 23.9362C22.8808 25.7096 23.3171 27.1421 24.1897 28.2325C24.6229 28.7741 25.1579 29.1804 25.7965 29.4515C25.8977 29.4952 26.0031 29.5352 26.1091 29.5722C26.1761 29.5952 26.2444 29.6159 26.3138 29.6371C26.3138 29.6371 26.3151 29.6383 26.3157 29.6383C26.3931 29.6613 26.4729 29.682 26.5533 29.7014C26.5935 29.7111 26.6344 29.7202 26.6758 29.7293C26.8811 29.7741 27.0956 29.8081 27.318 29.8299C27.3692 29.836 27.4204 29.8409 27.4722 29.8451C27.5532 29.8524 27.6343 29.8572 27.7178 29.8609C27.7269 29.8609 27.736 29.8609 27.7446 29.8621C27.8488 29.8663 27.953 29.8682 28.0602 29.8682C29.1369 29.8682 30.1771 29.6838 31.1794 29.3132C32.1824 28.9439 33.1196 28.4545 33.9928 27.845C34.8647 27.2342 35.6636 26.5423 36.3869 25.766C37.1108 24.9897 37.7512 24.1958 38.3081 23.3819H38.4196C37.714 24.9339 36.8232 26.6247 35.7465 28.4545C34.6691 30.2842 33.4633 32.1133 32.1264 33.9418C30.7895 35.7716 29.3319 37.5358 27.7543 39.2357C26.1755 40.9357 24.5138 42.4415 22.7693 43.7533C21.0235 45.0651 19.2235 46.1095 17.3669 46.8858C15.5096 47.662 13.6176 48.0502 11.686 48.0502C10.46 48.0502 9.31867 47.8749 8.26024 47.5238C7.20182 47.1726 6.29268 46.6729 5.531 46.0276C5.20135 45.7474 4.90155 45.443 4.631 45.1137C4.27697 44.6837 3.97352 44.2118 3.72125 43.6994C3.483 43.2148 3.30812 42.706 3.19783 42.1729L0.98165 40.8374C0.728164 41.3863 0.60203 41.9788 0.60203 42.618C0.60203 43.5417 0.844548 44.3913 1.32654 45.1676C1.68727 45.7474 2.1522 46.266 2.71949 46.7208C2.91205 46.8767 3.11557 47.0228 3.33067 47.1635C4.18557 47.7185 5.19708 48.1521 6.36641 48.4662C7.53635 48.7792 8.78915 48.9369 10.126 48.9369C12.6877 48.9369 15.3237 48.3819 18.0347 47.2739C20.7451 46.1659 23.3719 44.6964 25.9153 42.8667C28.4581 41.0369 30.8534 38.9125 33.0995 36.4926C35.3455 34.0728 37.3137 31.559 39.004 28.953C40.6931 26.3476 42.03 23.724 43.0141 21.0816C43.9976 18.4404 44.4905 15.9545 44.4905 13.6262C44.4905 11.7419 43.9976 10.1899 43.0141 8.96972L43.0147 8.96851Z" fill="#E8E3DD"/>
<path d="M8.50398 45.3714L3.58659 45.0421C3.39708 45.0294 3.22281 45.147 3.16553 45.3265L1.66716 50L0 40.2431L8.50459 45.3714H8.50398Z" fill="#E8E3DD"/>
<path d="M40.2666 42.2699C40.8924 44.5781 42.6223 45.7135 45.4563 45.7135C47.26 45.7135 48.6584 45.0906 49.5791 43.8819L53.407 46.0798C51.6034 48.6809 48.9162 49.9994 45.3826 49.9994C42.3274 49.9994 39.8979 49.0836 38.0577 47.2521C36.2175 45.4205 35.2974 43.1123 35.2974 40.328C35.2974 37.5437 36.2175 35.2724 38.0211 33.4409C39.8248 31.5723 42.1805 30.6566 45.0146 30.6566C47.7018 30.6566 49.9466 31.5723 51.6771 33.4409C53.4442 35.3094 54.3271 37.5807 54.3271 40.328C54.3271 40.9508 54.2534 41.5737 54.1431 42.2699H40.2666ZM49.5791 38.6062C49.0271 36.1148 47.1869 34.9061 45.0152 34.9061C42.4754 34.9061 40.7455 36.2616 40.1934 38.6062H49.5797H49.5791Z" fill="#E8E3DD"/>
<path d="M61.6088 34.3203C62.4923 31.9756 64.7006 30.8033 67.2038 30.8033V36.079C65.7682 35.8959 64.4434 36.1888 63.3021 36.9584C62.1608 37.7274 61.6088 38.9731 61.6088 40.7319V49.4875H56.8608V31.1702H61.6088V34.3209V34.3203Z" fill="#E8E3DD"/>
<path d="M83.252 31.1696H88V49.4869H83.252V47.3255C81.8164 49.1206 79.8287 50 77.2524 50C74.6761 50 72.6884 49.0842 70.9214 47.2157C69.1914 45.3471 68.3079 43.0395 68.3079 40.3286C68.3079 37.6177 69.1914 35.3464 70.9214 33.4779C72.6884 31.6093 74.7864 30.6572 77.2524 30.6572C79.7184 30.6572 81.8164 31.5366 83.252 33.3317V31.1696ZM78.136 45.4939C79.6081 45.4939 80.8232 45.0178 81.7798 44.0651C82.7737 43.0759 83.252 41.8302 83.252 40.328C83.252 38.8257 82.7737 37.5807 81.7798 36.6279C80.8232 35.6387 79.6081 35.1627 78.136 35.1627C76.6638 35.1627 75.4488 35.6387 74.4921 36.6279C73.5348 37.5801 73.0565 38.8257 73.0565 40.328C73.0565 41.8302 73.5348 43.0759 74.4921 44.0651C75.4494 45.0172 76.6638 45.4939 78.136 45.4939Z" fill="#E8E3DD"/>
</svg>
