<svg width="412" height="25" viewBox="0 0 412 25" fill="none" xmlns="http://www.w3.org/2000/svg">
<path d="M10.2514 15.9716H86.5823C112.034 15.9716 137.462 15.9716 162.913 15.9716H239.244C264.696 15.9716 290.123 15.9716 315.575 15.9716C341.027 15.9716 366.454 15.9716 391.906 15.9716H401.251C402.314 15.9716 402.314 14.3238 401.251 14.3238H324.92C299.469 14.3238 274.041 14.3238 248.589 14.3238H172.258C146.807 14.3238 121.379 14.3238 95.9275 14.3238C70.4758 14.3238 45.0482 14.3238 19.5965 14.3238H10.2514C9.18888 14.3238 9.18888 15.9716 10.2514 15.9716Z" fill="#E8E3DD"/>
<path d="M0.254224 16.5289C0.519849 17.2801 1.07525 17.9343 1.79968 18.2736C2.52411 18.6128 3.36928 18.734 4.16616 18.5643C4.96303 18.3947 5.66332 17.8616 6.02553 17.1589C6.38775 16.4562 6.48434 15.6081 6.3153 14.8084C6.24286 14.4449 6.09797 14.0815 5.90479 13.7665C5.68746 13.3788 5.37354 13.088 5.03548 12.8214C4.35934 12.3126 3.44173 12.1914 2.6207 12.3853C0.930363 12.7972 -0.397763 14.6146 0.109339 16.3835C0.592293 18.0555 2.45167 19.0974 4.11786 18.734C4.33519 18.6855 4.55252 18.5886 4.7457 18.4917C4.91473 18.419 5.08377 18.1766 5.13206 18.007C5.18036 17.8132 5.15621 17.5466 5.05962 17.377C4.96303 17.2074 4.76985 17.0377 4.57667 16.9893C4.35934 16.9408 4.14201 16.9893 3.94883 17.062C3.92468 17.062 3.90053 17.062 3.87638 17.0862L4.06956 17.0135C3.90053 17.0862 3.70735 17.1347 3.53831 17.1589H3.75564C3.53832 17.1589 3.32099 17.1589 3.1278 17.1347H3.34513C3.10366 17.1347 2.88632 17.062 2.669 16.9651L2.86218 17.0377C2.64485 16.9408 2.42752 16.8197 2.23434 16.6743L2.40337 16.7954C2.23434 16.65 2.0653 16.5046 1.92042 16.3108L2.04115 16.4804C1.92042 16.3108 1.79968 16.1412 1.72724 15.9473L1.79968 16.1412C1.72724 15.9715 1.67894 15.7777 1.65479 15.5838V15.8019C1.65479 15.6323 1.65479 15.4627 1.67894 15.2688V15.4869C1.67894 15.2931 1.72724 15.0992 1.79968 14.9054L1.72724 15.0992C1.82383 14.9054 1.92042 14.7115 2.04115 14.5419L1.92042 14.7115C2.0653 14.5176 2.23434 14.3723 2.42752 14.2269L2.25848 14.348C2.45167 14.2026 2.669 14.0815 2.88633 13.9845L2.69314 14.0572C2.91047 13.9603 3.10366 13.9119 3.34513 13.8876H3.1278C3.32099 13.8876 3.51417 13.8876 3.70735 13.9119H3.49002C3.65905 13.9119 3.85224 13.9603 4.02127 14.033L3.82809 13.9603C3.99712 14.033 4.14201 14.1299 4.28689 14.2269L4.11786 14.1057C4.26275 14.2269 4.40763 14.348 4.52837 14.5176L4.40763 14.348C4.55252 14.5176 4.64911 14.7357 4.7457 14.9296L4.67326 14.7357C4.76985 14.9538 4.84229 15.1961 4.86644 15.4385V15.2204C4.86644 15.4627 4.86644 15.705 4.84229 15.9231V15.705C4.84229 15.9231 4.794 16.1169 4.72155 16.3108L4.794 16.1169C4.72155 16.2866 4.62496 16.432 4.52837 16.5773L4.64911 16.4077C4.55252 16.5289 4.43178 16.65 4.28689 16.7712L4.45593 16.65C4.31104 16.7712 4.16616 16.8439 3.99712 16.9166L4.1903 16.8439C3.99712 16.9166 3.80394 16.9651 3.58661 17.0135H3.80394C3.56246 17.0135 3.34513 17.0135 3.10366 16.9893H3.32098C3.07951 16.9893 2.83803 16.9166 2.6207 16.8197L2.81389 16.8924C2.6207 16.7954 2.42752 16.6985 2.25848 16.5773L2.42752 16.6985C2.28264 16.5773 2.13775 16.4562 2.01701 16.3108L2.13775 16.4804C2.04116 16.335 1.94456 16.1896 1.87212 16.0442L1.94457 16.2381C1.94457 16.2381 1.92042 16.1654 1.89627 16.1169C1.82383 15.9231 1.70309 15.7292 1.50991 15.6323C1.34087 15.5354 1.07525 15.4869 0.882065 15.5596C0.471554 15.6808 0.157634 16.1412 0.30252 16.5773L0.254224 16.5289Z" fill="#E8E3DD"/>
<path d="M410.089 16.0927C410.089 16.0927 410.065 16.1654 410.041 16.2139L410.113 16.02C410.041 16.1896 409.969 16.335 409.848 16.4562L409.969 16.2866C409.848 16.432 409.727 16.5773 409.558 16.6743L409.727 16.5531C409.558 16.6743 409.365 16.7954 409.172 16.8681L409.365 16.7954C409.147 16.8924 408.906 16.9651 408.665 16.9893H408.882C408.64 16.9893 408.423 16.9893 408.182 16.9651H408.399C408.206 16.9651 407.988 16.9166 407.795 16.8439L407.988 16.9166C407.819 16.8439 407.674 16.747 407.53 16.65L407.699 16.7712C407.578 16.6743 407.457 16.5531 407.336 16.4077L407.457 16.5773C407.336 16.432 407.264 16.2866 407.192 16.1169L407.264 16.3108C407.192 16.1169 407.143 15.9231 407.095 15.705V15.9231C407.095 15.6808 407.095 15.4385 407.119 15.2204V15.4385C407.119 15.1961 407.192 14.9538 407.288 14.7357L407.216 14.9296C407.312 14.7115 407.409 14.5176 407.554 14.348L407.433 14.5176C407.554 14.3723 407.674 14.2269 407.844 14.1057L407.675 14.2269C407.819 14.1299 407.964 14.033 408.133 13.9603L407.94 14.033C408.109 13.9603 408.278 13.9119 408.471 13.8876H408.254C408.447 13.8876 408.64 13.8876 408.834 13.9119H408.616C408.834 13.9119 409.051 13.9603 409.268 14.0572L409.075 13.9845C409.292 14.0815 409.51 14.2026 409.703 14.348L409.534 14.2269C409.727 14.3723 409.896 14.5419 410.041 14.7115L409.92 14.5419C410.041 14.7115 410.162 14.9054 410.234 15.0992L410.162 14.9054C410.234 15.0992 410.307 15.2931 410.331 15.4869V15.2688C410.331 15.4385 410.331 15.6081 410.307 15.8019V15.5838C410.307 15.7777 410.258 15.9715 410.186 16.1412L410.258 15.9473C410.186 16.1412 410.065 16.3108 409.944 16.4804L410.065 16.3108C409.92 16.4804 409.775 16.65 409.582 16.7954L409.751 16.6743C409.558 16.8197 409.341 16.9408 409.123 17.0377L409.317 16.9651C409.099 17.062 408.882 17.1104 408.64 17.1589H408.858C408.64 17.1589 408.423 17.1589 408.23 17.1347H408.447C408.254 17.1347 408.085 17.0862 407.916 17.0135L408.109 17.0862C408.109 17.0862 408.061 17.0862 408.037 17.062C407.819 16.9651 407.626 16.9166 407.409 16.9893C407.216 17.0377 406.998 17.1831 406.926 17.377C406.829 17.5708 406.781 17.8132 406.853 18.007C406.926 18.2009 407.047 18.419 407.24 18.4917C407.674 18.6855 408.085 18.8067 408.568 18.8067C408.954 18.8067 409.365 18.734 409.727 18.5886C410.524 18.2736 411.224 17.7405 411.635 16.9893C411.852 16.5773 411.973 16.1412 411.997 15.6808C412.021 15.2204 411.9 14.7357 411.707 14.2996C411.393 13.5726 410.741 12.9426 410.017 12.6276C409.582 12.4337 409.148 12.3126 408.665 12.2883C408.182 12.2641 407.747 12.3853 407.312 12.5791C406.564 12.9183 406.081 13.6211 405.791 14.348C405.211 15.8019 405.743 17.692 407.216 18.3463C407.626 18.5159 408.013 18.637 408.471 18.637C408.858 18.637 409.244 18.6128 409.606 18.4917C410.379 18.2736 411.055 17.7889 411.49 17.1104C411.611 16.9166 411.683 16.7227 411.755 16.5289C411.828 16.335 411.755 16.0685 411.683 15.8989C411.611 15.7292 411.393 15.5596 411.2 15.5111C410.741 15.4142 410.331 15.6565 410.186 16.0927H410.089Z" fill="#E8E3DD"/>
<path d="M9.044 15.8989C14.3565 20.6483 21.0454 23.1441 28.0965 21.2541C34.4957 19.5336 39.9289 14.9296 44.1065 9.91361C46.3281 7.22389 48.2599 4.31608 49.8536 1.21441L48.7187 1.50519C52.6548 4.50993 57.7258 6.25462 62.3139 7.92661C70.017 10.7375 77.9374 12.991 85.9062 14.8811C95.2996 17.1104 104.838 18.8309 114.449 19.9213C123.408 20.9391 132.898 22.0295 141.808 20.0909C152.385 17.8132 161.561 11.5856 169.288 4.19492L167.984 4.0253C169.143 6.66656 171.027 9.0655 172.862 11.2706C176.774 15.9715 181.266 20.0667 186.916 22.4899C188.896 23.338 190.973 24.0407 193.074 24.5254C193.846 24.695 195.03 25.1311 195.827 24.9615C197.034 24.695 198.193 23.1684 198.893 22.2718C202.202 18.0555 203.675 12.5306 204.689 7.36928L203.892 7.97507H208.118C207.852 7.78122 207.587 7.56313 207.321 7.36928C208.263 12.2156 209.615 17.2801 212.464 21.3995C213.285 22.5868 214.517 24.3315 215.942 24.8646C216.545 25.1069 217.221 24.8646 217.849 24.7677C219.757 24.4042 221.616 23.8711 223.427 23.1926C229.102 21.0844 233.618 17.4981 237.65 13.0395C240.041 10.3982 242.577 7.39351 244.025 4.07376L242.721 4.24338C249.724 10.9556 257.886 16.6985 267.28 19.4125C275.876 21.9083 284.907 21.2056 293.721 20.3575C311.88 18.637 330.064 14.8084 347.305 8.82318C350.589 7.68429 353.873 6.44847 357.037 4.99457C359.186 4.0253 361.407 2.98333 363.291 1.52943L362.156 1.23865C367.517 11.8522 378.866 23.8711 391.882 21.7145C396.084 21.0118 399.802 18.7582 402.942 15.9473C403.738 15.2446 402.555 14.0572 401.782 14.7842C398.354 17.8616 394.2 20.1636 389.515 20.3333C385.652 20.4787 381.909 19.1944 378.601 17.2316C372.129 13.3788 366.961 7.12696 363.605 0.438998C363.412 0.0755219 362.808 -0.118332 362.47 0.148217C358.63 3.08026 353.729 4.77648 349.261 6.42424C341.848 9.1382 334.241 11.2948 326.586 13.1607C317.362 15.39 307.993 17.1347 298.575 18.2493C293.77 18.8309 288.916 19.2186 284.086 19.4367C279.861 19.6063 275.659 19.6063 271.481 18.7824C260.832 16.6985 251.656 10.5436 243.905 3.12872C243.567 2.78948 242.818 2.78948 242.601 3.29834C241.587 5.62459 239.969 7.75699 238.375 9.69553C234.729 14.1784 230.479 18.2493 225.19 20.721C223.234 21.6175 221.182 22.3203 219.105 22.8534C218.453 23.023 217.777 23.1684 217.101 23.2895C216.883 23.338 216.207 23.4834 216.352 23.4107C216.642 23.2895 216.835 23.7015 216.594 23.4349C216.473 23.2895 216.207 23.1926 216.062 23.0957C215.386 22.5868 214.758 21.8841 214.227 21.1814C211.16 17.1589 209.808 11.8764 208.866 7.0058C208.794 6.64233 208.408 6.40001 208.069 6.40001H203.844C203.506 6.40001 203.119 6.66656 203.047 7.0058C202.153 11.6098 200.898 16.3835 198.266 20.3333C197.662 21.2298 196.986 22.0779 196.189 22.7807C196.044 22.9018 195.247 23.338 195.199 23.4834C195.247 23.2895 195.778 23.5561 195.489 23.3865C195.126 23.1926 194.45 23.2168 194.04 23.1199C192.18 22.7322 190.369 22.1749 188.606 21.4964C183.077 19.364 178.706 15.6323 174.842 11.1979C172.766 8.82318 170.616 6.18192 169.361 3.27411C169.143 2.76525 168.419 2.76525 168.057 3.10449C161.054 9.81668 152.844 15.5354 143.378 18.0797C134.878 20.3575 125.847 19.5094 117.202 18.637C99.5496 16.8681 81.8494 13.088 65.0908 7.24812C59.8508 5.43074 53.9829 3.54066 49.4914 0.123985C49.1534 -0.142564 48.5497 0.0512901 48.3565 0.414766C44.9758 7.10273 39.8082 13.3545 33.3607 17.2074C30.0525 19.1701 26.3338 20.4544 22.446 20.309C17.7613 20.1394 13.6079 17.8374 10.1789 14.76C9.38206 14.0572 8.22297 15.2204 9.01985 15.9231L9.044 15.8989Z" fill="#E8E3DD"/>
</svg>
