<svg width="1440" height="156" viewBox="0 0 1440 156" fill="none" xmlns="http://www.w3.org/2000/svg">
<path d="M-18.1333 88.2858C-17.3422 76.7377 1.84286 79.9961 6.35892 80.1398C17.7974 83.4941 30.6533 76.9294 41.7621 82.1045C49.9701 86.2733 57.1892 91.4484 65.7598 90.9692C72.913 81.194 80.6266 92.8859 87.516 89.3879C92.2628 87.5191 96.7789 79.1815 101.625 82.7274C103.273 82.1524 103.8 82.4399 105.251 81.2419C106.207 81.6253 106.668 82.6316 107.888 77.5044C111.085 81.9128 118.667 77.2169 121.963 77.3127C126.644 75.6356 130.303 77.0731 134.424 81.4336C138.511 85.0274 140.324 92.2151 145.467 85.5545C148.862 90.5379 161.883 89.9629 165.245 84.5003C167.124 77.0252 166.036 79.469 166.893 77.121C167.948 74.8689 170.222 70.4126 172.596 70.748C179.156 64.375 190.462 63.3687 197.813 69.2146C207.637 64.1833 219.471 60.3978 229.063 68.4C232.359 68.1604 232.524 71.0834 235.953 79.0377C238.557 88.0942 241.688 78.4148 244.49 80.044C249.237 79.1815 257.676 80.3794 261.895 81.1461C266.082 86.8004 266.312 85.267 271.389 88.2858C282.135 91.065 293.046 87.3754 303.265 90.3463C309.989 93.0776 318.164 88.0462 325.12 90.9692C333.888 107.117 346.777 82.1524 353.436 96.4318C355.842 101.032 357.194 108.842 360.622 104.242C362.6 103.14 364.578 107.357 366.589 108.747C374.17 109.992 378.423 99.4506 385.642 104.434C389.103 94.9943 392.63 102.038 396.058 104.578C400.673 106.686 406.903 105.201 411.32 105.057C414.749 110.376 416.694 107.501 420.55 112.197C423.583 114.928 426.616 109.849 429.681 112.772C438.384 113.682 447.416 102.517 456.25 109.897C463.469 114.928 471.216 118.857 478.765 117.851C477.71 103.859 505.63 120.103 511.531 109.992C520.596 103.092 529.43 116.174 538.33 116.126C545.945 128.92 553.263 113.251 561.076 118.186C566.679 120.63 570.371 120.534 575.382 115.455C578.217 111.478 576.667 112.34 579.865 112.676C580.755 99.9777 582.436 111.143 583.458 112.724C588.304 106.638 593.908 115.886 598.621 112.532C602.083 116.509 604.786 113.634 607.719 119.576C613.06 117.372 618.532 124.751 624.795 126.332C633.662 126.045 642.464 122.834 650.836 128.537C657.825 133.52 665.538 124.224 672.329 123.649C676.054 118.474 676.911 121.397 680.042 119.768C681.789 120.582 683.174 112.532 685.152 118.043C689.866 120.918 694.678 122.116 699.425 118.186C703.974 109.992 708.82 121.876 713.336 118.474C718.544 132.705 722.83 113.49 727.906 112.628C737.202 115.647 747.256 117.803 756.618 112.772C760.408 114.449 764.99 112.149 768.649 112.197C772.605 112.053 773.067 106.351 776.099 102.949C782.362 94.6589 793.438 109.13 800.492 101.99C804.053 105.488 806.03 94.7547 809.92 99.211C816.546 95.8568 815.92 97.8214 820.864 92.1192C826.336 82.9191 837.313 90.2025 842.917 93.0297C847.334 101.751 849.411 97.1027 851.422 99.7381C853.498 100.888 853.663 106.111 857.553 111.574C860.816 112.58 863.487 123.697 867.904 120.966C872.914 126.141 876.178 118.282 879.936 118.378C885.935 108.507 895.033 116.845 901.395 118.138C910.13 120.87 918.866 116.413 927.601 118.138C933.799 112.293 939.996 117.755 946.16 118.138C949.621 117.42 955.983 120.726 955.884 113.155C962.213 109.13 969.564 111.286 976.025 112.293C976.52 106.59 975.465 101.08 976.256 99.5944C982.321 103.907 988.057 90.1546 994.353 93.5568C998.77 92.1672 1003.22 100.888 1007.64 93.7005C1017.72 91.4005 1027.84 98.0131 1037.93 93.7005C1041.92 92.7901 1044.49 92.5026 1047.92 90.7296C1053.13 87.615 1056.39 79.3252 1062.49 85.5066C1068.06 83.542 1073.57 88.2858 1078.97 86.8962C1085.53 86.9921 1083.36 82.8711 1087.97 82.5836C1091.27 76.0668 1097.96 85.8899 1101.52 82.7753C1107.65 92.3109 1113.88 77.0252 1120.01 82.7274C1125.29 85.6983 1125.65 85.0753 1129.64 90.8255C1133.66 86.8962 1139.36 93.6526 1144.21 96.3839C1149.51 101.703 1153.77 94.563 1159.07 99.6902C1162.63 98.061 1164.02 106.878 1167.51 100.026C1170.02 100.601 1171.01 97.9173 1173.15 92.7422C1175.49 82.1045 1176.31 87.6629 1179.31 90.9213C1182.81 88.4775 1186.34 93.5568 1189.83 90.9213C1193.78 96.4797 1197.74 83.2066 1201.66 90.9213C1205.45 86.8962 1211.42 91.3526 1214.85 91.2088C1218.11 93.7005 1220.22 92.1672 1223.68 84.7878C1227.77 81.5774 1229.58 75.8273 1233.97 84.7399C1242.64 90.9692 1247.91 94.1797 1258.2 99.1152C1265.15 95.8568 1272.11 103.667 1279.06 99.1152C1285.09 96.6714 1289.74 108.938 1295.54 101.894C1300.39 102.709 1305.27 100.265 1310.11 101.847C1314.73 100.649 1319.41 95.8568 1324.03 101.799C1327.12 101.655 1332.13 98.8277 1334.77 104.386C1342.16 115.359 1346.9 116.509 1355.24 118.186C1359.4 118.857 1363.61 124.224 1367.67 118.809C1370.97 113.49 1374.3 120.966 1377.66 123.793C1385.7 127.866 1395.36 125.422 1400.17 115.551C1406.3 103.524 1414.64 104.147 1424.57 104.626C1429.28 109.322 1433.07 101.703 1437.59 101.847C1438.67 106.926 1440.49 104.386 1441.44 102.134C1443.26 101.703 1442.93 101.176 1444.31 98.2048C1451.66 90.2504 1459.21 88.765 1465.64 101.942C1465.64 101.655 1467.98 84.3087 1470.32 73.4314C1472.66 60.0145 1475 46.1663 1475 44.9204C1469.4 50.1913 1463.83 60.5415 1457.89 61.5478C1454.56 59.4874 1447.05 66.3875 1443.75 61.4041C1438.51 59.9186 1435.21 51.4851 1430.37 57.379C1425.29 53.4497 1420.15 50.8143 1415.2 57.7144C1409.83 60.9249 1406.17 78.9419 1400.3 69.5021C1391.67 69.7417 1386.29 71.1313 1379.44 79.8523C1372.35 88.7171 1361.34 79.5169 1353.33 73.8147C1345.98 72.4251 1338.23 65.3812 1330.52 72.5209C1322.84 69.6459 1315.22 70.6042 1308.17 68.3521C1299.96 57.7623 1291.95 52.9226 1282.62 56.3727C1274.08 58.8165 1266.57 64.2791 1257.8 55.7498C1253.75 63.7041 1250.68 56.1331 1246.63 53.2581C1237.73 50.958 1229.62 48.5621 1221.11 44.7287C1214.32 41.7099 1210.53 27.718 1204.07 29.0118C1199.26 15.7865 1193.78 34.7619 1188.87 28.868C1183.8 32.6535 1179.94 27.3826 1174.63 22.8783C1170.15 30.018 1165.27 20.147 1160.72 23.1658C1151.92 22.2075 1138.9 19.2366 1131.12 26.4242C1128.65 22.7825 1127.16 23.3096 1124.3 33.6119C1120.8 33.5639 1116.29 27.1909 1112.66 33.9473C1108.11 33.9473 1106.3 43.6745 1101.98 39.5536C1099.9 44.4891 1097.99 39.9849 1095.92 39.937C1094.99 40.1286 1093.15 35.7202 1091.66 45.6392C1088.04 45.9746 1082.99 40.7995 1079.1 49.6163C1075.84 53.0664 1072.91 59.6311 1069.51 52.2518C1065.49 46.3579 1064.4 38.2119 1059.56 42.1891C1056.56 43.3391 1054.71 45.735 1052.57 50.5268C1047.79 61.2603 1040.77 51.581 1035.06 53.0185C1023.66 56.7561 1012.19 61.7395 1000.78 53.0185C997.88 54.6477 995.639 52.6351 992.837 54.0727C988.651 61.2124 988.881 57.4269 984.233 61.4999C976.388 60.829 968.147 52.156 960.17 58.3853C955.753 68.2084 952.061 59.1999 947.544 61.2603C944.841 57.2831 941.413 57.7144 938.941 62.1228C935.842 66.6271 937.194 69.7417 935.48 74.4376C932.513 79.469 922.03 80.619 916.591 77.5044C911.713 67.3938 906.834 71.7063 901.955 77.5044C894.835 81.7211 889.561 78.9898 883.628 71.5147C880.1 56.3248 878.452 67.4896 874.694 63.7999C871.2 66.8187 868.893 55.9415 865.761 57.7144C860.355 51.1976 853.466 58.0977 846.279 49.5205C839.093 46.8371 831.643 43.0516 825.149 50.2872C817.04 47.9871 808.766 52.0122 801.02 53.0185C797.097 60.7811 797.295 58.6248 793.01 55.606C788.856 56.9477 787.076 57.8582 783.648 60.7332C777.912 51.2455 770.627 53.9768 764.595 61.2124C758.793 58.0019 752.926 60.8291 747.124 61.3561C739.344 65.1896 730.873 57.2352 722.467 56.0373C714.061 62.3145 705.655 65.3812 698.041 61.1645C695.667 67.0104 694.052 63.4645 691.975 68.7834C691.514 64.0874 688.184 73.4314 687.954 74.3418C683.207 80.2836 678.625 72.0897 674.241 72.3293C668.307 69.6459 663.461 77.5044 658.121 66.6271C654.166 64.0874 650.276 60.3978 645.331 53.5456C639.892 52.4914 635.211 53.5456 630.333 56.5644C625.388 57.1873 622.916 56.9477 618.927 51.2934C616.587 44.3933 616.587 41.8537 613.192 48.4184C609.697 43.9141 606.137 63.6083 602.676 58.7207C597.929 62.9853 592.194 59.0082 587.018 60.5895C579.997 58.0498 572.745 46.8371 565.427 58.0019C558.109 60.7811 550.758 54.6477 543.605 58.4332C540.704 50.7184 534.507 65.3812 532.1 58.7207C529.694 61.8832 529.826 61.9311 527.32 69.6459C524.815 82.4399 519.739 82.2482 516.607 72.2334C512.289 72.0897 509.586 72.1855 505.004 69.3105C499.631 58.8644 494.093 68.7355 488.753 69.023C483.248 68.2084 479.852 69.6459 474.71 74.2939C467.095 79.2294 462.711 71.7063 456.943 65.7646C453.514 58.4332 453.02 62.3624 449.064 59.9186C446.46 53.7852 444.284 59.6311 441.581 53.4977C436.999 56.0373 431.033 46.1663 426.22 53.0185C421.473 50.4788 418.606 54.9352 414.386 55.9894C411.386 54.5039 409.771 61.9311 407.464 52.3955C403.706 42.6683 403.673 59.4874 399.157 47.46C393.487 56.5165 387.521 47.46 381.818 47.5559C378.95 42.3808 375.654 49.5684 372.819 47.46C368.303 46.5017 370.412 49.1851 366.885 52.3955C362.633 59.2478 358.512 65.4771 353.04 55.7019C348.986 61.6436 344.931 57.954 340.877 55.7019C337.712 54.3602 334.383 56.3248 331.284 55.2227C328.35 58.7686 325.515 51.8685 322.384 49.4247C319.285 42.7162 315.956 50.6705 312.857 46.5496C307.319 49.2809 303.199 37.7807 297.661 34.4744C292.156 22.1116 286.091 33.9952 280.454 33.5639C276.004 27.9576 272.773 34.9056 268.29 26.3284C265.521 39.5057 262.785 23.4054 260.148 24.5554C258.434 25.1784 256.588 13.3906 254.643 20.0991C252.962 16.1219 250.951 27.5742 249.204 20.5303C243.765 21.5366 242.018 20.7699 237.897 12.1448C229.162 4.43004 218.943 -5.82433 208.131 4.09461C202.527 2.27375 196.89 4.76546 191.286 4.09461C183.606 -0.745062 175.958 5.72381 168.278 4.19045C160.597 -0.074214 152.949 4.09462 145.269 4.14253C140.72 6.10715 137.621 9.07804 133.501 6.92175C130.369 9.07804 126.809 2.51334 123.644 6.68217C117.81 3.90295 109.701 1.6029 104.822 14.4448C102.679 19.0449 102.119 24.6992 100.24 20.8658C99.0534 17.847 97.8666 20.6741 96.7129 25.8971C94.7351 32.7493 93.8451 36.9182 94.1088 34.2827C87.8786 43.2912 70.6055 35.0015 61.013 40.0807C54.0906 41.8058 47.2341 45.1121 39.7513 41.9974C35.5978 37.8286 33.4552 45.8308 29.6643 47.1725C24.2582 48.8017 17.6326 43.387 12.1276 47.6517C4.5459 49.9038 -2.93699 41.662 -10.4198 46.31C-17.9026 46.6934 -25.3853 49.0413 -33 44.9683C-33 47.3163 -18.0345 86.5129 -18.0345 88.4296L-18.1333 88.2858Z" fill="#520000"/>
<path d="M-18.1333 114.286C-17.3422 102.738 1.84286 105.996 6.35892 106.14C17.7974 109.494 30.6533 102.929 41.7621 108.104C49.9701 112.273 57.1892 117.448 65.7598 116.969C72.913 107.194 80.6266 118.886 87.516 115.388C92.2628 113.519 96.7789 105.181 101.625 108.727C103.273 108.152 103.8 108.44 105.251 107.242C106.207 107.625 106.668 108.632 107.888 103.504C111.085 107.913 118.667 103.217 121.963 103.313C126.644 101.636 130.303 103.073 134.424 107.434C138.511 111.027 140.324 118.215 145.467 111.555C148.862 116.538 161.883 115.963 165.245 110.5C167.124 103.025 166.036 105.469 166.893 103.121C167.948 100.869 170.222 96.4126 172.596 96.748C179.156 90.375 190.462 89.3687 197.813 95.2146C207.637 90.1833 219.471 86.3978 229.063 94.4C232.359 94.1604 232.524 97.0834 235.953 105.038C238.557 114.094 241.688 104.415 244.49 106.044C249.237 105.181 257.676 106.379 261.895 107.146C266.082 112.8 266.312 111.267 271.389 114.286C282.135 117.065 293.046 113.375 303.265 116.346C309.989 119.078 318.164 114.046 325.12 116.969C333.888 133.117 346.777 108.152 353.436 122.432C355.842 127.032 357.194 134.842 360.622 130.242C362.6 129.14 364.578 133.357 366.589 134.747C374.17 135.992 378.423 125.451 385.642 130.434C389.103 120.994 392.63 128.038 396.058 130.578C400.673 132.686 406.903 131.201 411.32 131.057C414.749 136.376 416.694 133.501 420.55 138.197C423.583 140.928 426.616 135.849 429.681 138.772C438.384 139.682 447.416 128.517 456.25 135.897C463.469 140.928 471.216 144.857 478.765 143.851C477.71 129.859 505.63 146.103 511.531 135.992C520.596 129.092 529.43 142.174 538.33 142.126C545.945 154.92 553.263 139.251 561.076 144.186C566.679 146.63 570.371 146.534 575.382 141.455C578.217 137.478 576.667 138.34 579.865 138.676C580.755 125.978 582.436 137.143 583.458 138.724C588.304 132.638 593.908 141.886 598.621 138.532C602.083 142.509 604.786 139.634 607.719 145.576C613.06 143.372 618.532 150.751 624.795 152.332C633.662 152.045 642.464 148.834 650.836 154.537C657.825 159.52 665.538 150.224 672.329 149.649C676.054 144.474 676.911 147.397 680.042 145.768C681.789 146.582 683.174 138.532 685.152 144.043C689.866 146.918 694.678 148.116 699.425 144.186C703.974 135.992 708.82 147.876 713.336 144.474C718.544 158.705 722.83 139.49 727.906 138.628C737.202 141.647 747.256 143.803 756.618 138.772C760.408 140.449 764.99 138.149 768.649 138.197C772.605 138.053 773.067 132.351 776.099 128.949C782.362 120.659 793.438 135.13 800.492 127.99C804.053 131.488 806.03 120.755 809.92 125.211C816.546 121.857 815.92 123.821 820.864 118.119C826.336 108.919 837.313 116.203 842.917 119.03C847.334 127.751 849.411 123.103 851.422 125.738C853.498 126.888 853.663 132.111 857.553 137.574C860.816 138.58 863.487 149.697 867.904 146.966C872.914 152.141 876.178 144.282 879.936 144.378C885.935 134.507 895.033 142.845 901.395 144.138C910.13 146.87 918.866 142.413 927.601 144.138C933.799 138.293 939.996 143.755 946.16 144.138C949.621 143.42 955.983 146.726 955.884 139.155C962.213 135.13 969.564 137.286 976.025 138.293C976.52 132.59 975.465 127.08 976.256 125.594C982.321 129.907 988.057 116.155 994.353 119.557C998.77 118.167 1003.22 126.888 1007.64 119.701C1017.72 117.4 1027.84 124.013 1037.93 119.701C1041.92 118.79 1044.49 118.503 1047.92 116.73C1053.13 113.615 1056.39 105.325 1062.49 111.507C1068.06 109.542 1073.57 114.286 1078.97 112.896C1085.53 112.992 1083.36 108.871 1087.97 108.584C1091.27 102.067 1097.96 111.89 1101.52 108.775C1107.65 118.311 1113.88 103.025 1120.01 108.727C1125.29 111.698 1125.65 111.075 1129.64 116.825C1133.66 112.896 1139.36 119.653 1144.21 122.384C1149.51 127.703 1153.77 120.563 1159.07 125.69C1162.63 124.061 1164.02 132.878 1167.51 126.026C1170.02 126.601 1171.01 123.917 1173.15 118.742C1175.49 108.104 1176.31 113.663 1179.31 116.921C1182.81 114.478 1186.34 119.557 1189.83 116.921C1193.78 122.48 1197.74 109.207 1201.66 116.921C1205.45 112.896 1211.42 117.353 1214.85 117.209C1218.11 119.701 1220.22 118.167 1223.68 110.788C1227.77 107.577 1229.58 101.827 1233.97 110.74C1242.64 116.969 1247.91 120.18 1258.2 125.115C1265.15 121.857 1272.11 129.667 1279.06 125.115C1285.09 122.671 1289.74 134.938 1295.54 127.894C1300.39 128.709 1305.27 126.265 1310.11 127.847C1314.73 126.649 1319.41 121.857 1324.03 127.799C1327.12 127.655 1332.13 124.828 1334.77 130.386C1342.16 141.359 1346.9 142.509 1355.24 144.186C1359.4 144.857 1363.61 150.224 1367.67 144.809C1370.97 139.49 1374.3 146.966 1377.66 149.793C1385.7 153.866 1395.36 151.422 1400.17 141.551C1406.3 129.524 1414.64 130.147 1424.57 130.626C1429.28 135.322 1433.07 127.703 1437.59 127.847C1438.67 132.926 1440.49 130.386 1441.44 128.134C1443.26 127.703 1442.93 127.176 1444.31 124.205C1451.66 116.25 1459.21 114.765 1465.64 127.942C1465.64 127.655 1467.98 110.309 1470.32 99.4314C1472.66 86.0145 1475 72.1663 1475 70.9204C1469.4 76.1913 1463.83 86.5415 1457.89 87.5478C1454.56 85.4874 1447.05 92.3875 1443.75 87.4041C1438.51 85.9186 1435.21 77.4851 1430.37 83.379C1425.29 79.4497 1420.15 76.8143 1415.2 83.7144C1409.83 86.9249 1406.17 104.942 1400.3 95.5021C1391.67 95.7417 1386.29 97.1313 1379.44 105.852C1372.35 114.717 1361.34 105.517 1353.33 99.8147C1345.98 98.4251 1338.23 91.3812 1330.52 98.5209C1322.84 95.6459 1315.22 96.6042 1308.17 94.3521C1299.96 83.7623 1291.95 78.9226 1282.62 82.3727C1274.08 84.8165 1266.57 90.2791 1257.8 81.7498C1253.75 89.7041 1250.68 82.1331 1246.63 79.2581C1237.73 76.958 1229.62 74.5621 1221.11 70.7287C1214.32 67.7099 1210.53 53.718 1204.07 55.0118C1199.26 41.7865 1193.78 60.7619 1188.87 54.868C1183.8 58.6535 1179.94 53.3826 1174.63 48.8783C1170.15 56.018 1165.27 46.147 1160.72 49.1658C1151.92 48.2075 1138.9 45.2366 1131.12 52.4242C1128.65 48.7825 1127.16 49.3096 1124.3 59.6119C1120.8 59.5639 1116.29 53.1909 1112.66 59.9473C1108.11 59.9473 1106.3 69.6745 1101.98 65.5536C1099.9 70.4891 1097.99 65.9849 1095.92 65.937C1094.99 66.1286 1093.15 61.7202 1091.66 71.6392C1088.04 71.9746 1082.99 66.7995 1079.1 75.6163C1075.84 79.0664 1072.91 85.6311 1069.51 78.2518C1065.49 72.3579 1064.4 64.2119 1059.56 68.1891C1056.56 69.3391 1054.71 71.735 1052.57 76.5268C1047.79 87.2603 1040.77 77.5809 1035.06 79.0185C1023.66 82.7561 1012.19 87.7395 1000.78 79.0185C997.88 80.6477 995.639 78.6351 992.837 80.0727C988.651 87.2124 988.881 83.4269 984.233 87.4999C976.388 86.829 968.147 78.156 960.17 84.3853C955.753 94.2084 952.061 85.1999 947.544 87.2603C944.841 83.2831 941.413 83.7144 938.941 88.1228C935.842 92.6271 937.194 95.7417 935.48 100.438C932.513 105.469 922.03 106.619 916.591 103.504C911.713 93.3938 906.834 97.7063 901.955 103.504C894.835 107.721 889.561 104.99 883.628 97.5147C880.1 82.3248 878.452 93.4896 874.694 89.7999C871.2 92.8187 868.893 81.9415 865.761 83.7144C860.355 77.1976 853.466 84.0977 846.279 75.5205C839.093 72.8371 831.643 69.0516 825.149 76.2872C817.04 73.9871 808.766 78.0122 801.02 79.0185C797.097 86.7811 797.295 84.6248 793.01 81.606C788.856 82.9477 787.076 83.8582 783.648 86.7332C777.912 77.2455 770.627 79.9768 764.595 87.2124C758.793 84.0019 752.926 86.829 747.124 87.3561C739.344 91.1895 730.873 83.2352 722.467 82.0373C714.061 88.3145 705.655 91.3812 698.041 87.1645C695.667 93.0104 694.052 89.4645 691.975 94.7834C691.514 90.0874 688.184 99.4314 687.954 100.342C683.207 106.284 678.625 98.0897 674.241 98.3293C668.307 95.6459 663.461 103.504 658.121 92.6271C654.166 90.0874 650.276 86.3978 645.331 79.5456C639.892 78.4914 635.211 79.5456 630.333 82.5644C625.388 83.1873 622.916 82.9477 618.927 77.2934C616.587 70.3933 616.587 67.8537 613.192 74.4184C609.697 69.9141 606.137 89.6083 602.676 84.7207C597.929 88.9853 592.194 85.0082 587.018 86.5895C579.997 84.0498 572.745 72.8371 565.427 84.0019C558.109 86.7811 550.758 80.6477 543.605 84.4332C540.704 76.7184 534.507 91.3812 532.1 84.7207C529.694 87.8832 529.826 87.9312 527.32 95.6459C524.815 108.44 519.739 108.248 516.607 98.2334C512.289 98.0897 509.586 98.1855 505.004 95.3105C499.631 84.8644 494.093 94.7355 488.753 95.023C483.248 94.2084 479.852 95.6459 474.71 100.294C467.095 105.229 462.711 97.7063 456.943 91.7646C453.514 84.4332 453.02 88.3624 449.064 85.9186C446.46 79.7852 444.284 85.6311 441.581 79.4977C436.999 82.0373 431.033 72.1663 426.22 79.0185C421.473 76.4788 418.606 80.9352 414.386 81.9894C411.386 80.5039 409.771 87.9311 407.464 78.3955C403.706 68.6683 403.673 85.4874 399.157 73.46C393.487 82.5165 387.521 73.46 381.818 73.5559C378.95 68.3808 375.654 75.5684 372.819 73.46C368.303 72.5017 370.412 75.1851 366.885 78.3955C362.633 85.2478 358.512 91.4771 353.04 81.7019C348.986 87.6436 344.931 83.954 340.877 81.7019C337.712 80.3602 334.383 82.3248 331.284 81.2227C328.35 84.7686 325.515 77.8685 322.384 75.4247C319.285 68.7162 315.956 76.6705 312.857 72.5496C307.319 75.2809 303.199 63.7807 297.661 60.4744C292.156 48.1116 286.091 59.9952 280.454 59.5639C276.004 53.9576 272.773 60.9056 268.29 52.3284C265.521 65.5057 262.785 49.4054 260.148 50.5554C258.434 51.1784 256.588 39.3906 254.643 46.0991C252.962 42.1219 250.951 53.5742 249.204 46.5303C243.765 47.5366 242.018 46.7699 237.897 38.1448C229.162 30.43 218.943 20.1757 208.131 30.0946C202.527 28.2737 196.89 30.7655 191.286 30.0946C183.606 25.2549 175.958 31.7238 168.278 30.1905C160.597 25.9258 152.949 30.0946 145.269 30.1425C140.72 32.1072 137.621 35.078 133.501 32.9218C130.369 35.078 126.809 28.5133 123.644 32.6822C117.81 29.9029 109.701 27.6029 104.822 40.4448C102.679 45.0449 102.119 50.6992 100.24 46.8658C99.0534 43.847 97.8666 46.6741 96.7129 51.8971C94.7351 58.7493 93.8451 62.9182 94.1088 60.2827C87.8786 69.2912 70.6055 61.0015 61.013 66.0807C54.0906 67.8058 47.2341 71.1121 39.7513 67.9974C35.5978 63.8286 33.4552 71.8308 29.6643 73.1725C24.2582 74.8017 17.6326 69.387 12.1276 73.6517C4.5459 75.9038 -2.93699 67.662 -10.4198 72.31C-17.9026 72.6934 -25.3853 75.0413 -33 70.9683C-33 73.3163 -18.0345 112.513 -18.0345 114.43L-18.1333 114.286Z" fill="#520000"/>
</svg>
