<svg width="1440" height="112" viewBox="0 0 1440 112" fill="none" xmlns="http://www.w3.org/2000/svg">
<g clip-path="url(#clip0_302_1072)">
<path d="M-17.1333 119.361C-16.3422 107.279 2.84286 110.688 7.35892 110.839C18.7974 114.348 31.6533 107.48 42.7621 112.894C50.9701 117.255 58.1892 122.669 66.7598 122.168C73.913 111.941 81.6266 124.173 88.516 120.514C93.2628 118.558 97.7789 109.836 102.625 113.546C104.273 112.944 104.8 113.245 106.251 111.992C107.207 112.393 107.668 113.445 108.888 108.081C112.085 112.693 119.667 107.781 122.963 107.881C127.644 106.126 131.303 107.63 135.424 112.192C139.511 115.952 141.324 123.471 146.467 116.503C149.862 121.717 162.883 121.115 166.245 115.4C168.124 107.58 167.036 110.137 167.893 107.68C168.948 105.324 171.222 100.662 173.596 101.013C180.156 94.3461 191.462 93.2934 198.813 99.4091C208.637 94.1456 220.471 90.1854 230.063 98.5569C233.359 98.3063 233.524 101.364 236.953 109.686C239.557 119.16 242.688 109.034 245.49 110.738C250.237 109.836 258.676 111.089 262.895 111.891C267.082 117.807 267.312 116.202 272.389 119.361C283.135 122.268 294.046 118.408 304.265 121.516C310.989 124.373 319.164 119.11 326.12 122.168C334.888 139.061 347.777 112.944 354.436 127.883C356.842 132.695 358.194 140.866 361.622 136.054C363.6 134.901 365.578 139.312 367.589 140.766C375.17 142.069 379.423 131.041 386.642 136.254C390.103 126.379 393.63 133.748 397.058 136.404C401.673 138.61 407.903 137.056 412.32 136.906C415.749 142.47 417.694 139.462 421.55 144.375C424.583 147.232 427.616 141.919 430.681 144.977C439.384 145.929 448.416 134.249 457.25 141.969C464.469 147.232 472.216 151.343 479.765 150.29C478.71 135.653 506.63 152.646 512.531 142.069C521.596 134.85 530.43 148.536 539.33 148.486C546.945 161.87 554.263 145.478 562.076 150.641C567.679 153.198 571.371 153.097 576.382 147.784C579.217 143.623 577.667 144.525 580.865 144.876C581.755 131.592 583.436 143.272 584.458 144.926C589.304 138.56 594.908 148.235 599.621 144.726C603.083 148.887 605.786 145.879 608.719 152.095C614.06 149.789 619.532 157.509 625.795 159.163C634.662 158.862 643.464 155.504 651.836 161.469C658.825 166.682 666.538 156.957 673.329 156.356C677.054 150.942 677.911 154 681.042 152.295C682.789 153.148 684.174 144.726 686.152 150.491C690.866 153.499 695.678 154.752 700.425 150.641C704.974 142.069 709.82 154.501 714.336 150.942C719.544 165.83 723.83 145.729 728.906 144.826C738.202 147.984 748.256 150.24 757.618 144.977C761.408 146.731 765.99 144.325 769.649 144.375C773.605 144.225 774.067 138.259 777.099 134.7C783.362 126.028 794.438 141.167 801.492 133.697C805.053 137.357 807.03 126.128 810.92 130.79C817.546 127.281 816.92 129.336 821.864 123.371C827.336 113.746 838.313 121.366 843.917 124.323C848.334 133.447 850.411 128.584 852.422 131.341C854.498 132.545 854.663 138.009 858.553 143.723C861.816 144.776 864.487 156.406 868.904 153.549C873.914 158.963 877.178 150.741 880.936 150.842C886.935 140.515 896.033 149.238 902.395 150.591C911.13 153.448 919.866 148.786 928.601 150.591C934.799 144.475 940.996 150.19 947.16 150.591C950.621 149.839 956.983 153.298 956.884 145.378C963.213 141.167 970.564 143.423 977.025 144.475C977.52 138.51 976.465 132.745 977.256 131.191C983.321 135.703 989.057 121.316 995.353 124.875C999.77 123.421 1004.22 132.545 1008.64 125.025C1018.72 122.619 1028.84 129.537 1038.93 125.025C1042.92 124.073 1045.49 123.772 1048.92 121.917C1054.13 118.659 1057.39 109.986 1063.49 116.453C1069.06 114.398 1074.57 119.361 1079.97 117.907C1086.53 118.007 1084.36 113.696 1088.97 113.395C1092.27 106.578 1098.96 116.854 1102.52 113.596C1108.65 123.571 1114.88 107.58 1121.01 113.546C1126.29 116.654 1126.65 116.002 1130.64 122.017C1134.66 117.907 1140.36 124.975 1145.21 127.832C1150.51 133.397 1154.77 125.927 1160.07 131.291C1163.63 129.587 1165.02 138.811 1168.51 131.642C1171.02 132.244 1172.01 129.437 1174.15 124.023C1176.49 112.894 1177.31 118.709 1180.31 122.118C1183.81 119.561 1187.34 124.875 1190.83 122.118C1194.78 127.933 1198.74 114.047 1202.66 122.118C1206.45 117.907 1212.42 122.569 1215.85 122.418C1219.11 125.025 1221.22 123.421 1224.68 115.701C1228.77 112.342 1230.58 106.327 1234.97 115.651C1243.64 122.168 1248.91 125.526 1259.2 130.69C1266.15 127.281 1273.11 135.452 1280.06 130.69C1286.09 128.133 1290.74 140.966 1296.54 133.597C1301.39 134.449 1306.27 131.893 1311.11 133.547C1315.73 132.294 1320.41 127.281 1325.03 133.497C1328.12 133.347 1333.13 130.389 1335.77 136.204C1343.16 147.684 1347.9 148.887 1356.24 150.641C1360.4 151.343 1364.61 156.957 1368.67 151.293C1371.97 145.729 1375.3 153.549 1378.66 156.506C1386.7 160.767 1396.36 158.211 1401.17 147.884C1407.3 135.302 1415.64 135.953 1425.57 136.455C1430.28 141.367 1434.07 133.397 1438.59 133.547C1439.67 138.861 1441.49 136.204 1442.44 133.848C1444.26 133.397 1443.93 132.845 1445.31 129.737C1452.66 121.416 1460.21 119.862 1466.64 133.647C1466.64 133.347 1468.98 115.2 1471.32 103.821C1473.66 89.7843 1476 75.297 1476 73.9937C1470.4 79.5079 1464.83 90.3358 1458.89 91.3885C1455.56 89.2329 1448.05 96.4515 1444.75 91.2381C1439.51 89.6841 1436.21 80.8614 1431.37 87.0272C1426.29 82.9167 1421.15 80.1595 1416.2 87.3781C1410.83 90.7368 1407.17 109.585 1401.3 99.7099C1392.67 99.9606 1387.29 101.414 1380.44 110.538C1373.35 119.812 1362.34 110.187 1354.33 104.222C1346.98 102.768 1339.23 95.3988 1331.52 102.868C1323.84 99.8603 1316.22 100.863 1309.17 98.5068C1300.96 87.4283 1292.95 82.3652 1283.62 85.9745C1275.08 88.5311 1267.57 94.2458 1258.8 85.3228C1254.75 93.6443 1251.68 85.7239 1247.63 82.7161C1238.73 80.3099 1230.62 77.8035 1222.11 73.7931C1215.32 70.635 1211.53 55.9973 1205.07 57.3508C1200.26 43.5151 1194.78 63.3663 1189.87 57.2004C1184.8 61.1606 1180.94 55.6464 1175.63 50.9342C1171.15 58.4035 1166.27 48.0769 1161.72 51.235C1152.92 50.2324 1139.9 47.1244 1132.12 54.6438C1129.65 50.834 1128.16 51.3854 1125.3 62.1632C1121.8 62.113 1117.29 55.4459 1113.66 62.5141C1109.11 62.5141 1107.3 72.6903 1102.98 68.3792C1100.9 73.5425 1098.99 68.8303 1096.92 68.7802C1095.99 68.9807 1094.15 64.3689 1092.66 74.7456C1089.04 75.0965 1083.99 69.6825 1080.1 78.9063C1076.84 82.5156 1073.91 89.3833 1070.51 81.6634C1066.49 75.4975 1065.4 66.9756 1060.56 71.1363C1057.56 72.3394 1055.71 74.8458 1053.57 79.8588C1048.79 91.0877 1041.77 80.9616 1036.06 82.4655C1024.66 86.3756 1013.19 91.589 1001.78 82.4655C998.88 84.1699 996.639 82.0645 993.837 83.5683C989.651 91.0376 989.881 87.0774 985.233 91.3383C977.388 90.6365 969.147 81.5632 961.17 88.08C956.753 98.3564 953.061 88.9321 948.544 91.0877C945.841 86.927 942.413 87.3781 939.941 91.99C936.842 96.7022 938.194 99.9606 936.48 104.873C933.513 110.137 923.03 111.34 917.591 108.081C912.713 97.5042 907.834 102.016 902.955 108.081C895.835 112.493 890.561 109.635 884.628 101.815C881.1 85.9244 879.452 97.6045 875.694 93.7445C872.2 96.9027 869.893 85.5234 866.761 87.3781C861.355 80.5606 854.466 87.7792 847.279 78.806C840.093 75.9988 832.643 72.0386 826.149 79.6081C818.04 77.2019 809.766 81.4128 802.02 82.4655C798.097 90.5864 798.295 88.3306 794.01 85.1725C789.856 86.5761 788.076 87.5285 784.648 90.5363C778.912 80.6107 771.627 83.4681 765.595 91.0376C759.793 87.6789 753.926 90.6365 748.124 91.188C740.344 95.1983 731.873 86.8769 723.467 85.6236C715.061 92.1905 706.655 95.3988 699.041 90.9874C696.667 97.1032 695.052 93.3936 692.975 98.958C692.514 94.0453 689.184 103.821 688.954 104.773C684.207 110.989 679.625 102.417 675.241 102.668C669.307 99.8603 664.461 108.081 659.121 96.7022C655.166 94.0453 651.276 90.1854 646.331 83.0169C640.892 81.9141 636.211 83.0169 631.333 86.175C626.388 86.8267 623.916 86.5761 619.927 80.6608C617.587 73.4422 617.587 70.7854 614.192 77.6531C610.697 72.9409 607.137 93.544 603.676 88.4309C598.929 92.8924 593.194 88.7316 588.018 90.3859C580.997 87.7291 573.745 75.9988 566.427 87.6789C559.109 90.5864 551.758 84.1699 544.605 88.1301C541.704 80.0593 535.507 95.3988 533.1 88.4309C530.694 91.7394 530.826 91.7895 528.32 99.8603C525.815 113.245 520.739 113.044 517.607 102.567C513.289 102.417 510.586 102.517 506.004 99.5094C500.631 88.5812 495.093 98.9079 489.753 99.2086C484.248 98.3564 480.852 99.8603 475.71 104.723C468.095 109.886 463.711 102.016 457.943 95.7999C454.514 88.1301 454.02 92.2407 450.064 89.6841C447.46 83.2676 445.284 89.3833 442.581 82.9668C437.999 85.6236 432.033 75.297 427.22 82.4655C422.473 79.8086 419.606 84.4707 415.386 85.5735C412.386 84.0195 410.771 91.7895 408.464 81.8138C404.706 71.6376 404.673 89.2329 400.157 76.6505C394.487 86.1249 388.521 76.6505 382.818 76.7508C379.95 71.3368 376.654 78.8562 373.819 76.6505C369.303 75.6479 371.412 78.4551 367.885 81.8138C363.633 88.9823 359.512 95.4991 354.04 85.2727C349.986 91.4887 345.931 87.6288 341.877 85.2727C338.712 83.8691 335.383 85.9244 332.284 84.7714C329.35 88.481 326.515 81.2624 323.384 78.7058C320.285 71.6877 316.956 80.0092 313.857 75.698C308.319 78.5554 304.199 66.5244 298.661 63.0655C293.156 50.1322 287.091 62.5642 281.454 62.113C277.004 56.2479 273.773 63.5167 269.29 54.5435C266.521 68.3291 263.785 51.4857 261.148 52.6888C259.434 53.3404 257.588 41.0087 255.643 48.0267C253.962 43.866 251.951 55.8469 250.204 48.4779C244.765 49.5306 243.018 48.7285 238.897 39.7053C230.162 31.6345 219.943 20.9069 209.131 31.2836C203.527 29.3787 197.89 31.9854 192.286 31.2836C184.606 26.2206 176.958 32.988 169.278 31.3839C161.597 26.9224 153.949 31.2836 146.269 31.3337C141.72 33.389 138.621 36.497 134.501 34.2412C131.369 36.497 127.809 29.6293 124.644 33.9906C118.81 31.0831 110.701 28.6769 105.822 42.1115C103.679 46.9239 103.119 52.8391 101.24 48.8288C100.053 45.6707 98.8666 48.6283 97.7129 54.0924C95.7351 61.2608 94.8451 65.6221 95.1088 62.865C88.8786 72.2893 71.6055 63.6169 62.013 68.9306C55.0906 70.7353 48.2341 74.1942 40.7513 70.9358C36.5978 66.5745 34.4552 74.9461 30.6643 76.3497C25.2582 78.0541 18.6326 72.3895 13.1276 76.851C5.5459 79.2071 -1.93699 70.5849 -9.4198 75.4474C-16.9026 75.8484 -24.3853 78.3048 -32 74.0438C-32 76.5001 -17.0345 117.506 -17.0345 119.511L-17.1333 119.361Z" fill="#F4EEE7"/>
<path d="M0 92H316V146H0V92Z" fill="#F4EEE7"/>
</g>
<defs>
<clipPath id="clip0_302_1072">
<rect width="1508" height="112" fill="white" transform="matrix(-1 0 0 -1 1476 112)"/>
</clipPath>
</defs>
</svg>
