<svg width="1440" height="91" viewBox="0 0 1440 91" fill="none" xmlns="http://www.w3.org/2000/svg">
<g clip-path="url(#clip0_2958_1118)">
<path d="M-18.1333 89.2858C-17.3422 77.7377 1.84286 80.9961 6.35892 81.1398C17.7974 84.4941 30.6533 77.9294 41.7621 83.1045C49.9701 87.2733 57.1892 92.4484 65.7598 91.9692C72.913 82.194 80.6266 93.8859 87.516 90.3879C92.2628 88.5191 96.7789 80.1815 101.625 83.7274C103.273 83.1524 103.8 83.4399 105.251 82.2419C106.207 82.6253 106.668 83.6316 107.888 78.5044C111.085 82.9128 118.667 78.2169 121.963 78.3127C126.644 76.6356 130.303 78.0731 134.424 82.4336C138.511 86.0274 140.324 93.2151 145.467 86.5545C148.862 91.5379 161.883 90.9629 165.245 85.5003C167.124 78.0252 166.036 80.469 166.893 78.121C167.948 75.8689 170.222 71.4126 172.596 71.748C179.156 65.375 190.462 64.3687 197.813 70.2146C207.637 65.1833 219.471 61.3978 229.063 69.4C232.359 69.1604 232.524 72.0834 235.953 80.0377C238.557 89.0942 241.688 79.4148 244.49 81.044C249.237 80.1815 257.676 81.3794 261.895 82.1461C266.082 87.8004 266.312 86.267 271.389 89.2858C282.135 92.065 293.046 88.3754 303.265 91.3463C309.989 94.0776 318.164 89.0462 325.12 91.9692C333.888 108.117 346.777 83.1524 353.436 97.4318C355.842 102.032 357.194 109.842 360.622 105.242C362.6 104.14 364.578 108.357 366.589 109.747C374.17 110.992 378.423 100.451 385.642 105.434C389.103 95.9943 392.63 103.038 396.058 105.578C400.673 107.686 406.903 106.201 411.32 106.057C414.749 111.376 416.694 108.501 420.55 113.197C423.583 115.928 426.616 110.849 429.681 113.772C438.384 114.682 447.416 103.517 456.25 110.897C463.469 115.928 471.216 119.857 478.765 118.851C477.71 104.859 505.63 121.103 511.531 110.992C520.596 104.092 529.43 117.174 538.33 117.126C545.945 129.92 553.263 114.251 561.076 119.186C566.679 121.63 570.371 121.534 575.382 116.455C578.217 112.478 576.667 113.34 579.865 113.676C580.755 100.978 582.436 112.143 583.458 113.724C588.304 107.638 593.908 116.886 598.621 113.532C602.083 117.509 604.786 114.634 607.719 120.576C613.06 118.372 618.532 125.751 624.795 127.332C633.662 127.045 642.464 123.834 650.836 129.537C657.825 134.52 665.538 125.224 672.329 124.649C676.054 119.474 676.911 122.397 680.042 120.768C681.789 121.582 683.174 113.532 685.152 119.043C689.866 121.918 694.678 123.116 699.425 119.186C703.974 110.992 708.82 122.876 713.336 119.474C718.544 133.705 722.83 114.49 727.906 113.628C737.202 116.647 747.256 118.803 756.618 113.772C760.408 115.449 764.99 113.149 768.649 113.197C772.605 113.053 773.067 107.351 776.099 103.949C782.362 95.6589 793.438 110.13 800.492 102.99C804.053 106.488 806.03 95.7547 809.92 100.211C816.546 96.8568 815.92 98.8214 820.864 93.1192C826.336 83.9191 837.313 91.2025 842.917 94.0297C847.334 102.751 849.411 98.1027 851.422 100.738C853.498 101.888 853.663 107.111 857.553 112.574C860.816 113.58 863.487 124.697 867.904 121.966C872.914 127.141 876.178 119.282 879.936 119.378C885.935 109.507 895.033 117.845 901.395 119.138C910.13 121.87 918.866 117.413 927.601 119.138C933.799 113.293 939.996 118.755 946.16 119.138C949.621 118.42 955.983 121.726 955.884 114.155C962.213 110.13 969.564 112.286 976.025 113.293C976.52 107.59 975.465 102.08 976.256 100.594C982.321 104.907 988.057 91.1546 994.353 94.5568C998.77 93.1672 1003.22 101.888 1007.64 94.7005C1017.72 92.4005 1027.84 99.0131 1037.93 94.7005C1041.92 93.7901 1044.49 93.5026 1047.92 91.7296C1053.13 88.615 1056.39 80.3252 1062.49 86.5066C1068.06 84.542 1073.57 89.2858 1078.97 87.8962C1085.53 87.9921 1083.36 83.8711 1087.97 83.5836C1091.27 77.0668 1097.96 86.8899 1101.52 83.7753C1107.65 93.3109 1113.88 78.0252 1120.01 83.7274C1125.29 86.6983 1125.65 86.0754 1129.64 91.8255C1133.66 87.8962 1139.36 94.6526 1144.21 97.3839C1149.51 102.703 1153.77 95.563 1159.07 100.69C1162.63 99.061 1164.02 107.878 1167.51 101.026C1170.02 101.601 1171.01 98.9173 1173.15 93.7422C1175.49 83.1045 1176.31 88.6629 1179.31 91.9213C1182.81 89.4775 1186.34 94.5568 1189.83 91.9213C1193.78 97.4797 1197.74 84.2066 1201.66 91.9213C1205.45 87.8962 1211.42 92.3526 1214.85 92.2088C1218.11 94.7005 1220.22 93.1672 1223.68 85.7878C1227.77 82.5774 1229.58 76.8273 1233.97 85.7399C1242.64 91.9692 1247.91 95.1797 1258.2 100.115C1265.15 96.8568 1272.11 104.667 1279.06 100.115C1285.09 97.6714 1289.74 109.938 1295.54 102.894C1300.39 103.709 1305.27 101.265 1310.11 102.847C1314.73 101.649 1319.41 96.8568 1324.03 102.799C1327.12 102.655 1332.13 99.8277 1334.77 105.386C1342.16 116.359 1346.9 117.509 1355.24 119.186C1359.4 119.857 1363.61 125.224 1367.67 119.809C1370.97 114.49 1374.3 121.966 1377.66 124.793C1385.7 128.866 1395.36 126.422 1400.17 116.551C1406.3 104.524 1414.64 105.147 1424.57 105.626C1429.28 110.322 1433.07 102.703 1437.59 102.847C1438.67 107.926 1440.49 105.386 1441.44 103.134C1443.26 102.703 1442.93 102.176 1444.31 99.2048C1451.66 91.2504 1459.21 89.765 1465.64 102.942C1465.64 102.655 1467.98 85.3087 1470.32 74.4314C1472.66 61.0144 1475 47.1663 1475 45.9204C1469.4 51.1913 1463.83 61.5415 1457.89 62.5478C1454.56 60.4874 1447.05 67.3875 1443.75 62.4041C1438.51 60.9186 1435.21 52.4851 1430.37 58.379C1425.29 54.4497 1420.15 51.8143 1415.2 58.7144C1409.83 61.9249 1406.17 79.9419 1400.3 70.5021C1391.67 70.7417 1386.29 72.1313 1379.44 80.8523C1372.35 89.7171 1361.34 80.5169 1353.33 74.8147C1345.98 73.4251 1338.23 66.3812 1330.52 73.5209C1322.84 70.6459 1315.22 71.6042 1308.17 69.3521C1299.96 58.7623 1291.95 53.9226 1282.62 57.3727C1274.08 59.8165 1266.57 65.2791 1257.8 56.7498C1253.75 64.7041 1250.68 57.1331 1246.63 54.2581C1237.73 51.958 1229.62 49.5621 1221.11 45.7287C1214.32 42.7099 1210.53 28.718 1204.07 30.0118C1199.26 16.7865 1193.78 35.7619 1188.87 29.868C1183.8 33.6535 1179.94 28.3826 1174.63 23.8783C1170.15 31.018 1165.27 21.147 1160.72 24.1658C1151.92 23.2075 1138.9 20.2366 1131.12 27.4242C1128.65 23.7825 1127.16 24.3096 1124.3 34.6119C1120.8 34.5639 1116.29 28.1909 1112.66 34.9473C1108.11 34.9473 1106.3 44.6745 1101.98 40.5536C1099.9 45.4891 1097.99 40.9849 1095.92 40.937C1094.99 41.1286 1093.15 36.7202 1091.66 46.6392C1088.04 46.9746 1082.99 41.7995 1079.1 50.6163C1075.84 54.0664 1072.91 60.6311 1069.51 53.2518C1065.49 47.3579 1064.4 39.2119 1059.56 43.1891C1056.56 44.3391 1054.71 46.735 1052.57 51.5268C1047.79 62.2603 1040.77 52.581 1035.06 54.0185C1023.66 57.7561 1012.19 62.7395 1000.78 54.0185C997.88 55.6477 995.639 53.6351 992.837 55.0727C988.65 62.2124 988.881 58.4269 984.233 62.4999C976.388 61.829 968.147 53.156 960.17 59.3853C955.753 69.2084 952.061 60.1999 947.544 62.2603C944.841 58.2831 941.413 58.7144 938.941 63.1228C935.842 67.6271 937.194 70.7417 935.48 75.4376C932.513 80.469 922.03 81.619 916.591 78.5044C911.713 68.3938 906.834 72.7063 901.955 78.5044C894.835 82.7211 889.561 79.9898 883.628 72.5147C880.1 57.3248 878.452 68.4896 874.694 64.7999C871.2 67.8187 868.893 56.9415 865.761 58.7144C860.355 52.1976 853.465 59.0977 846.279 50.5205C839.093 47.8371 831.643 44.0516 825.149 51.2872C817.04 48.9871 808.766 53.0122 801.02 54.0185C797.097 61.7811 797.295 59.6248 793.01 56.606C788.856 57.9477 787.076 58.8582 783.648 61.7332C777.912 52.2455 770.627 54.9768 764.595 62.2124C758.793 59.0019 752.926 61.8291 747.124 62.3561C739.344 66.1896 730.873 58.2352 722.467 57.0373C714.061 63.3145 705.655 66.3812 698.041 62.1645C695.667 68.0104 694.052 64.4645 691.975 69.7834C691.514 65.0874 688.184 74.4314 687.954 75.3418C683.207 81.2836 678.625 73.0897 674.241 73.3293C668.307 70.6459 663.461 78.5044 658.121 67.6271C654.166 65.0874 650.276 61.3978 645.331 54.5456C639.892 53.4914 635.211 54.5456 630.333 57.5644C625.388 58.1873 622.916 57.9477 618.927 52.2934C616.587 45.3933 616.587 42.8537 613.192 49.4184C609.697 44.9141 606.137 64.6083 602.676 59.7207C597.929 63.9853 592.194 60.0082 587.018 61.5895C579.997 59.0498 572.745 47.8371 565.427 59.0019C558.109 61.7811 550.758 55.6477 543.605 59.4332C540.704 51.7184 534.507 66.3812 532.1 59.7207C529.694 62.8832 529.826 62.9311 527.32 70.6459C524.815 83.4399 519.739 83.2482 516.607 73.2334C512.289 73.0897 509.586 73.1855 505.004 70.3105C499.631 59.8644 494.093 69.7355 488.753 70.023C483.248 69.2084 479.852 70.6459 474.71 75.2939C467.095 80.2294 462.711 72.7063 456.943 66.7646C453.514 59.4332 453.02 63.3624 449.064 60.9186C446.46 54.7852 444.284 60.6311 441.581 54.4977C436.999 57.0373 431.033 47.1663 426.22 54.0185C421.473 51.4788 418.606 55.9352 414.386 56.9894C411.386 55.5039 409.771 62.9311 407.464 53.3955C403.706 43.6683 403.673 60.4874 399.157 48.46C393.487 57.5165 387.521 48.46 381.818 48.5559C378.95 43.3808 375.654 50.5684 372.819 48.46C368.303 47.5017 370.412 50.1851 366.885 53.3955C362.633 60.2478 358.512 66.4771 353.04 56.7019C348.986 62.6436 344.931 58.954 340.877 56.7019C337.712 55.3602 334.383 57.3248 331.284 56.2227C328.35 59.7686 325.515 52.8685 322.384 50.4247C319.285 43.7162 315.956 51.6705 312.857 47.5496C307.319 50.2809 303.199 38.7807 297.661 35.4744C292.156 23.1116 286.091 34.9952 280.454 34.5639C276.004 28.9576 272.773 35.9056 268.29 27.3284C265.521 40.5057 262.785 24.4054 260.148 25.5554C258.434 26.1784 256.588 14.3906 254.643 21.0991C252.962 17.1219 250.951 28.5742 249.204 21.5303C243.765 22.5366 242.018 21.7699 237.897 13.1448C229.162 5.43004 218.943 -4.82433 208.131 5.09461C202.527 3.27375 196.89 5.76546 191.286 5.09461C183.606 0.254938 175.958 6.72381 168.278 5.19045C160.597 0.925786 152.949 5.09462 145.269 5.14253C140.72 7.10715 137.621 10.078 133.501 7.92175C130.369 10.078 126.809 3.51334 123.644 7.68217C117.81 4.90295 109.701 2.6029 104.822 15.4448C102.679 20.0449 102.119 25.6992 100.24 21.8658C99.0534 18.847 97.8666 21.6741 96.7129 26.8971C94.7351 33.7493 93.8451 37.9182 94.1088 35.2827C87.8786 44.2912 70.6055 36.0015 61.013 41.0807C54.0906 42.8058 47.2341 46.1121 39.7513 42.9974C35.5978 38.8286 33.4552 46.8308 29.6643 48.1725C24.2582 49.8017 17.6326 44.387 12.1276 48.6517C4.5459 50.9038 -2.93699 42.662 -10.4198 47.31C-17.9026 47.6934 -25.3853 50.0413 -33 45.9683C-33 48.3163 -18.0345 87.5129 -18.0345 89.4296L-18.1333 89.2858Z" fill="#520000"/>
<path d="M-18.1333 115.286C-17.3422 103.738 1.84286 106.996 6.35892 107.14C17.7974 110.494 30.6533 103.929 41.7621 109.104C49.9701 113.273 57.1892 118.448 65.7598 117.969C72.913 108.194 80.6266 119.886 87.516 116.388C92.2628 114.519 96.7789 106.181 101.625 109.727C103.273 109.152 103.8 109.44 105.251 108.242C106.207 108.625 106.668 109.632 107.888 104.504C111.085 108.913 118.667 104.217 121.963 104.313C126.644 102.636 130.303 104.073 134.424 108.434C138.511 112.027 140.324 119.215 145.467 112.555C148.862 117.538 161.883 116.963 165.245 111.5C167.124 104.025 166.036 106.469 166.893 104.121C167.948 101.869 170.222 97.4126 172.596 97.748C179.156 91.375 190.462 90.3687 197.813 96.2146C207.637 91.1833 219.471 87.3978 229.063 95.4C232.359 95.1604 232.524 98.0834 235.953 106.038C238.557 115.094 241.688 105.415 244.49 107.044C249.237 106.181 257.676 107.379 261.895 108.146C266.082 113.8 266.312 112.267 271.389 115.286C282.135 118.065 293.046 114.375 303.265 117.346C309.989 120.078 318.164 115.046 325.12 117.969C333.888 134.117 346.777 109.152 353.436 123.432C355.842 128.032 357.194 135.842 360.622 131.242C362.6 130.14 364.578 134.357 366.589 135.747C374.17 136.993 378.423 126.451 385.642 131.434C389.103 121.994 392.63 129.038 396.058 131.578C400.673 133.686 406.903 132.201 411.32 132.057C414.749 137.376 416.694 134.501 420.55 139.197C423.583 141.928 426.616 136.849 429.681 139.772C438.384 140.682 447.416 129.517 456.25 136.897C463.469 141.928 471.216 145.857 478.765 144.851C477.71 130.859 505.63 147.103 511.531 136.992C520.596 130.092 529.43 143.174 538.33 143.126C545.945 155.92 553.263 140.251 561.076 145.186C566.679 147.63 570.371 147.534 575.382 142.455C578.217 138.478 576.667 139.34 579.865 139.676C580.755 126.978 582.436 138.143 583.458 139.724C588.304 133.638 593.908 142.886 598.621 139.532C602.083 143.509 604.786 140.634 607.719 146.576C613.06 144.372 618.532 151.751 624.795 153.332C633.662 153.045 642.464 149.834 650.836 155.537C657.825 160.52 665.538 151.224 672.329 150.649C676.054 145.474 676.911 148.397 680.042 146.768C681.789 147.582 683.174 139.532 685.152 145.043C689.866 147.918 694.678 149.116 699.425 145.186C703.974 136.992 708.82 148.876 713.336 145.474C718.544 159.705 722.83 140.49 727.906 139.628C737.202 142.647 747.256 144.803 756.618 139.772C760.408 141.449 764.99 139.149 768.649 139.197C772.605 139.053 773.067 133.351 776.099 129.949C782.362 121.659 793.438 136.13 800.492 128.99C804.053 132.488 806.03 121.755 809.92 126.211C816.546 122.857 815.92 124.821 820.864 119.119C826.336 109.919 837.313 117.203 842.917 120.03C847.334 128.751 849.411 124.103 851.422 126.738C853.498 127.888 853.663 133.111 857.553 138.574C860.816 139.58 863.487 150.697 867.904 147.966C872.914 153.141 876.178 145.282 879.936 145.378C885.935 135.507 895.033 143.845 901.395 145.138C910.13 147.87 918.866 143.413 927.601 145.138C933.799 139.293 939.996 144.755 946.16 145.138C949.621 144.42 955.983 147.726 955.884 140.155C962.213 136.13 969.564 138.286 976.025 139.293C976.52 133.59 975.465 128.08 976.256 126.594C982.321 130.907 988.057 117.155 994.353 120.557C998.77 119.167 1003.22 127.888 1007.64 120.701C1017.72 118.4 1027.84 125.013 1037.93 120.701C1041.92 119.79 1044.49 119.503 1047.92 117.73C1053.13 114.615 1056.39 106.325 1062.49 112.507C1068.06 110.542 1073.57 115.286 1078.97 113.896C1085.53 113.992 1083.36 109.871 1087.97 109.584C1091.27 103.067 1097.96 112.89 1101.52 109.775C1107.65 119.311 1113.88 104.025 1120.01 109.727C1125.29 112.698 1125.65 112.075 1129.64 117.825C1133.66 113.896 1139.36 120.653 1144.21 123.384C1149.51 128.703 1153.77 121.563 1159.07 126.69C1162.63 125.061 1164.02 133.878 1167.51 127.026C1170.02 127.601 1171.01 124.917 1173.15 119.742C1175.49 109.104 1176.31 114.663 1179.31 117.921C1182.81 115.477 1186.34 120.557 1189.83 117.921C1193.78 123.48 1197.74 110.207 1201.66 117.921C1205.45 113.896 1211.42 118.353 1214.85 118.209C1218.11 120.701 1220.22 119.167 1223.68 111.788C1227.77 108.577 1229.58 102.827 1233.97 111.74C1242.64 117.969 1247.91 121.18 1258.2 126.115C1265.15 122.857 1272.11 130.667 1279.06 126.115C1285.09 123.671 1289.74 135.938 1295.54 128.894C1300.39 129.709 1305.27 127.265 1310.11 128.847C1314.73 127.649 1319.41 122.857 1324.03 128.799C1327.12 128.655 1332.13 125.828 1334.77 131.386C1342.16 142.359 1346.9 143.509 1355.24 145.186C1359.4 145.857 1363.61 151.224 1367.67 145.809C1370.97 140.49 1374.3 147.966 1377.66 150.793C1385.7 154.866 1395.36 152.422 1400.17 142.551C1406.3 130.524 1414.64 131.147 1424.57 131.626C1429.28 136.322 1433.07 128.703 1437.59 128.847C1438.67 133.926 1440.49 131.386 1441.44 129.134C1443.26 128.703 1442.93 128.176 1444.31 125.205C1451.66 117.25 1459.21 115.765 1465.64 128.942C1465.64 128.655 1467.98 111.309 1470.32 100.431C1472.66 87.0144 1475 73.1663 1475 71.9204C1469.4 77.1913 1463.83 87.5415 1457.89 88.5478C1454.56 86.4874 1447.05 93.3875 1443.75 88.4041C1438.51 86.9186 1435.21 78.4851 1430.37 84.379C1425.29 80.4497 1420.15 77.8143 1415.2 84.7144C1409.83 87.9249 1406.17 105.942 1400.3 96.5021C1391.67 96.7417 1386.29 98.1313 1379.44 106.852C1372.35 115.717 1361.34 106.517 1353.33 100.815C1345.98 99.4251 1338.23 92.3812 1330.52 99.5209C1322.84 96.6459 1315.22 97.6042 1308.17 95.3521C1299.96 84.7623 1291.95 79.9226 1282.62 83.3727C1274.08 85.8165 1266.57 91.2791 1257.8 82.7498C1253.75 90.7041 1250.68 83.1331 1246.63 80.2581C1237.73 77.958 1229.62 75.5621 1221.11 71.7287C1214.32 68.7099 1210.53 54.718 1204.07 56.0118C1199.26 42.7865 1193.78 61.7619 1188.87 55.868C1183.8 59.6535 1179.94 54.3826 1174.63 49.8783C1170.15 57.018 1165.27 47.147 1160.72 50.1658C1151.92 49.2075 1138.9 46.2366 1131.12 53.4242C1128.65 49.7825 1127.16 50.3096 1124.3 60.6119C1120.8 60.5639 1116.29 54.1909 1112.66 60.9473C1108.11 60.9473 1106.3 70.6745 1101.98 66.5536C1099.9 71.4891 1097.99 66.9849 1095.92 66.937C1094.99 67.1286 1093.15 62.7202 1091.66 72.6392C1088.04 72.9746 1082.99 67.7995 1079.1 76.6163C1075.84 80.0664 1072.91 86.6311 1069.51 79.2518C1065.49 73.3579 1064.4 65.2119 1059.56 69.1891C1056.56 70.3391 1054.71 72.735 1052.57 77.5268C1047.79 88.2603 1040.77 78.581 1035.06 80.0185C1023.66 83.7561 1012.19 88.7395 1000.78 80.0185C997.88 81.6477 995.639 79.6351 992.837 81.0727C988.65 88.2124 988.881 84.4269 984.233 88.4999C976.388 87.829 968.147 79.156 960.17 85.3853C955.753 95.2084 952.061 86.1999 947.544 88.2603C944.841 84.2831 941.413 84.7144 938.941 89.1228C935.842 93.6271 937.194 96.7417 935.48 101.438C932.513 106.469 922.03 107.619 916.591 104.504C911.713 94.3938 906.834 98.7063 901.955 104.504C894.835 108.721 889.561 105.99 883.628 98.5147C880.1 83.3248 878.452 94.4896 874.694 90.7999C871.2 93.8187 868.893 82.9415 865.761 84.7144C860.355 78.1976 853.465 85.0977 846.279 76.5205C839.093 73.8371 831.643 70.0516 825.149 77.2872C817.04 74.9871 808.766 79.0122 801.02 80.0185C797.097 87.7811 797.295 85.6248 793.01 82.606C788.856 83.9477 787.076 84.8582 783.648 87.7332C777.912 78.2455 770.627 80.9768 764.595 88.2124C758.793 85.0019 752.926 87.829 747.124 88.3561C739.344 92.1895 730.873 84.2352 722.467 83.0373C714.061 89.3145 705.655 92.3812 698.041 88.1645C695.667 94.0104 694.052 90.4645 691.975 95.7834C691.514 91.0874 688.184 100.431 687.954 101.342C683.207 107.284 678.625 99.0897 674.241 99.3293C668.307 96.6459 663.461 104.504 658.121 93.6271C654.166 91.0874 650.276 87.3978 645.331 80.5456C639.892 79.4914 635.211 80.5456 630.333 83.5644C625.388 84.1873 622.916 83.9477 618.927 78.2934C616.587 71.3933 616.587 68.8537 613.192 75.4184C609.697 70.9141 606.137 90.6083 602.676 85.7207C597.929 89.9853 592.194 86.0082 587.018 87.5895C579.997 85.0498 572.745 73.8371 565.427 85.0019C558.109 87.7811 550.758 81.6477 543.605 85.4332C540.704 77.7184 534.507 92.3812 532.1 85.7207C529.694 88.8832 529.826 88.9311 527.32 96.6459C524.815 109.44 519.739 109.248 516.607 99.2334C512.289 99.0897 509.586 99.1855 505.004 96.3105C499.631 85.8644 494.093 95.7355 488.753 96.023C483.248 95.2084 479.852 96.6459 474.71 101.294C467.095 106.229 462.711 98.7063 456.943 92.7646C453.514 85.4332 453.02 89.3624 449.064 86.9186C446.46 80.7852 444.284 86.6311 441.581 80.4977C436.999 83.0373 431.033 73.1663 426.22 80.0185C421.473 77.4788 418.606 81.9352 414.386 82.9894C411.386 81.5039 409.771 88.9311 407.464 79.3955C403.706 69.6683 403.673 86.4874 399.157 74.46C393.487 83.5165 387.521 74.46 381.818 74.5559C378.95 69.3808 375.654 76.5684 372.819 74.46C368.303 73.5017 370.412 76.1851 366.885 79.3955C362.633 86.2478 358.512 92.4771 353.04 82.7019C348.986 88.6436 344.931 84.954 340.877 82.7019C337.712 81.3602 334.383 83.3248 331.284 82.2227C328.35 85.7686 325.515 78.8685 322.384 76.4247C319.285 69.7162 315.956 77.6705 312.857 73.5496C307.319 76.2809 303.199 64.7807 297.661 61.4744C292.156 49.1116 286.091 60.9952 280.454 60.5639C276.004 54.9576 272.773 61.9056 268.29 53.3284C265.521 66.5057 262.785 50.4054 260.148 51.5554C258.434 52.1784 256.588 40.3906 254.643 47.0991C252.962 43.1219 250.951 54.5742 249.204 47.5303C243.765 48.5366 242.018 47.7699 237.897 39.1448C229.162 31.43 218.943 21.1757 208.131 31.0946C202.527 29.2737 196.89 31.7655 191.286 31.0946C183.606 26.2549 175.958 32.7238 168.278 31.1905C160.597 26.9258 152.949 31.0946 145.269 31.1425C140.72 33.1072 137.621 36.078 133.501 33.9218C130.369 36.078 126.809 29.5133 123.644 33.6822C117.81 30.9029 109.701 28.6029 104.822 41.4448C102.679 46.0449 102.119 51.6992 100.24 47.8658C99.0534 44.847 97.8666 47.6741 96.7129 52.8971C94.7351 59.7493 93.8451 63.9182 94.1088 61.2827C87.8786 70.2912 70.6055 62.0015 61.013 67.0807C54.0906 68.8058 47.2341 72.1121 39.7513 68.9974C35.5978 64.8286 33.4552 72.8308 29.6643 74.1725C24.2582 75.8017 17.6326 70.387 12.1276 74.6517C4.5459 76.9038 -2.93699 68.662 -10.4198 73.31C-17.9026 73.6934 -25.3853 76.0413 -33 71.9683C-33 74.3163 -18.0345 113.513 -18.0345 115.43L-18.1333 115.286Z" fill="#520000"/>
</g>
<defs>
<clipPath id="clip0_2958_1118">
<rect width="1440" height="91" fill="none"/>
</clipPath>
</defs>
</svg>
